**ABCDEFGHIJKLMNOPQRSTUVWXYZabcdefghijklmnopqrstuvwxyz**************************
**PARASOLID !"#$%&'()*+,-./:;<=>?@[\]^_`{|}~0123456789**************************
**PART1;
MC=AMD64;
MC_MODEL=Intel64 Family 6 Model 60 Stepping 3, GenuineIntel;
MC_ID=unknown;
OS=Windows_NT;
OS_RELEASE=unknown;
FRU=Parasolid Version 25.1, build 239,  8-18-2014;
APPL=SolidWorks 2014-2014292;
SITE=;
USER=unknown;
FORMAT=text;
GUISE=transmit;
KEY=Disk;
FILE=Disk.x_t;
DATE=Fri Feb 17 14:10:07 2017;
**PART2;
SCH=SCH_2501239_25001;
USFLD_SIZE=0;
**PART3;
**END_OF_HEADER*****************************************************************
T51 : TRANSMIT FILE created by modeller version 250123923 SCH_2501239_25001_1300
6189 0 12 29 CCCCCCCCCCCCCDI5 owner1040 0 CCCCCCCCCA16 index_map_offset0 0 1 dA9
 index_map82 0 A17 node_id_index_map82 0 A20 schema_embedding_map82 0 A5 child12
 0 A14 lowest_node_id0 0 1 dZ1 645 2 3 0 0 0 0 1e3 1e-8 0 4 0 1 0 1 1 5 6 7 8 9
 10 11 0 0 0 0 0 0 81 255 2 2 578 12 1 0 0 0 0 13 0 70 11 CI9 list_type0 0 1 uI1
0 notransmit0 0 1 lCCCDCCDI12 finger_index0 0 1 dI12 finger_block1012 0 CZ3 0 4
 T1 0 0 4 20 1 14 14 13 255 5 280 0 1 0 15 0 0 16 0 52 255 6 571 0 17 18 0 0 -1.
505 .0785 1.4585 0 -1 0 .00499999999999983 .707106781186542 .707106781186554 0 0
 -1 31 255 7 555 0 10 19 0 0 -1.505 .078 1.4585 0 1 0 0 0 1 .00549999999999984 2
9 255 8 407 0 11 20 0 1.513986100377805 .0794937104430354 1.459 19 8 CCCCCCCA5 o
wner12 0 Z9 281 0 1 16 0 21 V0 16 255 10 552 0 ?22 0 23 7 0 0 1 18 255 11 405 0
 24 0 25 8 ?1 17 255 24 0 26 27 28 11 29 30 0 31 +18 25 453 0 28 11 32 20 ?1 17
 28 0 26 24 33 25 34 35 0 29 -18 32 455 0 33 25 36 37 ?1 29 20 484 0 25 37 8 1.5
13986100377805 .078487260112716 1.459 29 37 485 0 32 38 20 1.496013899622194 .07
8487260112716 1.459 29 38 486 0 36 0 37 1.496013899622194 .0794937104430354 1.45
9 18 36 456 0 27 32 0 38 ?1 17 27 0 26 33 24 36 31 39 0 40 -15 255 26 466 0 24 4
1 42 17 33 0 26 28 27 32 40 43 0 34 +17 31 0 44 45 45 11 27 39 0 46 +16 39 412 0
 ?31 23 47 48 0 0 1 17 40 0 49 46 50 36 33 43 0 45 -15 49 431 0 29 51 0 17 46 0
 49 29 40 11 45 52 0 0 -17 50 0 49 40 29 32 53 54 0 0 -16 43 442 0 ?33 30 55 56
 0 0 1 17 45 0 44 31 31 36 46 52 0 0 +15 44 86 0 45 57 0 16 52 406 0 ?45 58 54 5
9 0 0 1 16 58 27 0 ?60 47 52 61 0 0 1 16 54 427 0 ?53 52 62 63 0 0 1 31 59 290 0
 52 64 63 0 -1.505 72497100577541e-28 1.459 2908435075114165e-36 156554558347006
5e-33 1 0 -1 1565545583470065e-33 .08 31 64 286 0 47 61 59 0 +1.505 724973466675
882e-29 1.436 0 0 1 1 0 0 .079 31 63 296 0 54 59 65 0 +1.505 72497100577541e-28
 1.459 2908435075114165e-36 1565545583470065e-33 1 0 -1 1565545583470065e-33 .07
9 31 65 302 0 62 63 48 0 -1.505 724973667202902e-29 1.476 2908435075114165e-36 1
565545583470065e-33 1 0 -1 1565545583470065e-33 .079 16 62 192 0 ?66 54 35 65 0
 0 1 38 255 48 414 0 39 65 19 0 +67 68 69 70 71 31 19 549 0 23 48 7 0 +1.505 .07
85 1.4585 0 1 0 0 0 1 .00499999999999983 51 255 67 95 0 57 72 73 74 +1.505 72497
5006090515e-29 1.484552210980734 2908435075114165e-36 1565545583470065e-33 1 .08
 0 -1 1565545583470065e-33 51 68 476 0 41 75 76 77 -1.505 .0800000000000072 1.45
85 0 -1 0 .00899999999999983 0 0 -1 40 255 11 69 -.0145715505344198 .99998293675
088 11 .000511616848269911 .33888648298163 ??1.496013899622194 .0794937104430354
 1.459 1.496351275878924 .0795311232856589 1.4560101062116 1.497653543907628 .07
96619707444148 1.45330100174237 1.499783020127462 .0798297132715049 1.4511663023
6446 1.50251064240587 .0799612599873819 1.449851121531172 1.505 .080000000000007
2 1.4495 1.507968423888805 .079944908903679 1.45000362079375 1.51060204036504 .0
798036161069763 1.451456056236134 1.51261576493134 .079636675750007 1.4537041554
95576 1.513775369236265 .0795172490392392 1.45650177709771 1.513986100377805 .07
94937104430354 1.459 41 255 1 70 L1.496013899622194 .0794937104430354 1.459 41 1
 71 L1.513986100377805 .0794937104430354 1.459 14 255 41 463 78 ?79 80 26 5 68 +
0 0 79 81 21 50 255 75 477 0 15 82 68 0 +1.505 .078 1.4585 0 1 0 0 0 1 50 76 12
 0 80 68 72 0 +1.504370559154095 -.03999504724613945 1.436 2908435074634055e-36
 156554558347007e-32 1 0 -1 156554558347007e-32 141 255 77 48 83 83 68 141 83 84
 77 77 68 38 84 479 0 35 85 61 0 +86 68 87 88 89 16 35 443 0 ?34 62 30 84 0 0 1
 30 255 85 480 0 30 56 84 0 -1.513986100377805 .0800000000000072 1.459 0 -1 0 31
 61 110 0 58 84 64 0 -1.505 724967561575127e-29 1.437 2908435075114165e-36 15655
45583470065e-33 1 -.999876181153667 .01573602114764535 0 .08 51 86 199 0 90 73 1
8 91 +1.505 724975006090515e-29 1.484552210980734 2908435075114165e-36 156554558
3470065e-33 1 .079 0 -1 1565545583470065e-33 40 10 87 0 1 10 .000511898153436852
 .339164689589286 ??1.513986100377805 .078487260112716 1.459 1.513317643118945 .
0785609114824098 1.461937559155256 1.511719545984145 .0787137072038162 1.4644872
95029222 1.509359757274675 .0788796077355046 1.466373532657322 1.506501578720935
 .0789857282130512 1.46737385267766 1.503487028257095 .0789855108010724 1.467371
917295892 1.500653789659145 .0788803553216781 1.466381018695134 1.49829882286964
4 .0787152731372301 1.464507846957736 1.496686505441374 .0785613506008192 1.4619
4758005327 1.496013899622194 .078487260112716 1.459 41 1 88 L1.513986100377805 .
078487260112716 1.459 41 1 89 L1.496013899622194 .078487260112716 1.459 14 90 43
7 92 ?51 15 93 5 86 +0 0 51 15 21 50 73 158 0 51 67 86 0 +1.50374111830819 -.079
9900944922862 1.459 -2908435074634055e-36 -156554558347007e-32 -1 0 1 -156554558
347007e-32 50 18 261 0 81 86 6 0 +1.50375685432934 -.0789902183111325 1.476 -290
8435074634055e-36 -156554558347007e-32 -1 0 1 -156554558347007e-32 141 91 84 91
 91 86 14 81 254 94 1e-8 95 57 96 5 18 -0 0 41 95 21 81 1 94 637 97 81 98 0 92 9
9 100 14 95 24 99 1e-8 80 81 101 5 72 +0 0 81 80 21 14 57 421 102 ?81 51 103 5 6
7 +0 0 80 51 21 15 96 256 0 104 81 0 13 21 3 0 0 0 0 0 0 9 15 14 15 508 105 ?90
 0 106 5 75 +0 0 90 0 21 81 1 105 640 97 15 107 0 102 108 109 15 106 553 0 22 15
 110 17 22 0 106 22 22 0 111 10 0 0 +15 110 473 0 112 15 0 17 112 0 110 112 112
 0 113 55 0 0 +17 113 0 42 113 113 0 112 55 0 0 -16 55 446 0 ?112 43 114 115 0 0
 1 16 114 514 0 ?116 55 0 117 0 0 1 31 115 482 0 55 117 56 0 +1.505 .078 1.4585
 0 1 0 0 0 1 .00899999999999983 31 117 534 0 114 0 115 0 +1.505 .08 1.4585 0 1 0
 0 0 1 .00499999999999983 30 56 481 0 43 115 85 0 +1.496013899622194 .0800000000
000072 1.459 0 -1 0 17 116 0 118 116 116 0 119 114 0 0 +15 118 524 0 116 120 0 1
7 119 0 121 119 119 0 116 114 0 0 -15 121 520 0 119 79 0 14 79 517 108 ?120 41 1
22 5 82 -0 0 120 41 21 81 1 108 641 97 79 123 0 105 124 125 14 120 522 124 ?17 7
9 118 5 126 +0 0 17 79 21 15 122 547 0 127 79 121 51 82 530 0 79 126 75 0 -1.505
 .08 1.4585 0 -1 0 .00499999999999983 0 0 -1 50 126 532 0 120 0 82 0 +1.505 .08
 1.4585 0 1 0 0 0 1 17 127 0 122 127 127 0 128 23 0 0 +17 128 0 129 128 128 0 12
7 23 0 0 -16 23 546 0 ?127 10 39 19 0 0 1 15 129 566 0 128 17 0 14 17 564 130 ?0
 120 131 5 6 -0 0 0 120 21 81 1 130 643 97 17 132 0 124 133 134 15 131 565 0 111
 17 129 17 111 0 131 111 111 0 22 10 0 0 -80 255 1 97 135 136 9000 1 1 1 1 1 1 1
 1 0 FFFFTFTFFFFFFF1 81 1 132 610 137 17 0 130 138 0 139 81 1 124 642 97 120 138
 0 108 130 140 81 1 133 644 97 51 141 0 130 142 143 82 255 1 134 556925042 14 51
 432 133 ?57 90 49 5 73 -0 0 57 90 21 81 1 141 602 137 51 0 133 144 145 146 81 1
 142 645 97 80 147 0 133 0 148 82 1 143 -1358561171 14 80 2 142 1e-8 41 95 149 5
 76 -0 0 95 57 21 81 1 147 606 137 80 0 142 150 151 152 82 1 148 999999 80 1 137
 0 153 8001 0 0 0 0 3 5 0 0 0 FFFFTFTFFFFFFF2 81 1 150 605 137 95 0 99 98 147 15
4 81 1 151 607 137 41 0 78 147 123 155 83 255 3 152 .792156862745098 .8196078431
37255 .933333333333333 81 1 78 635 97 41 151 0 0 92 156 81 1 123 608 137 79 0 10
8 151 138 157 83 3 155 .792156862745098 .819607843137255 .933333333333333 81 1 1
38 609 137 120 0 124 123 132 158 83 3 157 .792156862745098 .819607843137255 .933
333333333333 83 3 158 .792156862745098 .819607843137255 .933333333333333 81 1 92
 636 97 90 144 0 78 94 159 82 1 156 -1371602835 81 1 144 601 137 90 0 92 107 141
 160 82 1 159 -1358102419 81 1 107 600 137 15 0 105 0 144 161 83 3 160 .79215686
2745098 .819607843137255 .933333333333333 83 3 161 .792156862745098 .81960784313
7255 .933333333333333 81 1 99 638 97 95 150 0 94 102 162 81 1 98 604 137 81 163
 94 145 150 164 83 3 154 .792156862745098 .819607843137255 .933333333333333 81 1
 163 339 165 81 0 98 0 0 166 81 1 145 603 137 57 0 102 141 98 167 83 3 164 .7921
56862745098 .819607843137255 .933333333333333 81 1 102 639 97 57 145 0 99 105 16
8 83 3 167 .792156862745098 .819607843137255 .933333333333333 82 1 168 -13621656
51 80 1 165 169 170 8017 0 0 0 0 0 0 0 0 0 TTTTTTTTTTTTTF3 84 255 1 166 N79 255
 13 170 SDL/TYSA_NAME82 1 162 999999 79 15 153 SDL/TYSA_COLOUR15 149 7 0 171 80
 0 17 171 0 149 171 171 0 172 47 0 0 -17 172 0 101 172 172 0 171 47 0 0 +16 47 9
 0 ?172 39 58 64 0 0 1 15 101 308 0 172 95 173 15 173 26 0 60 95 0 17 60 0 173 6
0 60 0 174 58 0 0 +17 174 0 103 174 174 0 60 58 0 0 -15 103 310 0 174 57 44 83 3
 146 .792156862745098 .819607843137255 .933333333333333 82 1 140 427753584 83 3
 139 .792156862745098 .819607843137255 .933333333333333 79 14 136 SWEntUnchanged
82 1 125 429719666 15 42 467 0 113 41 0 82 1 109 432144498 17 104 0 96 104 104 0
 66 62 0 0 -17 66 0 93 66 66 0 104 62 0 0 +15 93 312 0 66 90 175 15 175 190 0 53
 90 0 17 53 0 175 34 34 25 50 54 0 0 +17 34 0 175 53 53 32 28 35 0 50 +52 72 35
 0 95 76 67 0 +1.505 724973466675882e-29 1.437 -218381162426303e-31 -13876069476
13844e-30 1 .08 .707106781186562 .707106781186533 0 -1 -1387606947613844e-30 82
 1 100 999999 16 30 441 0 ?24 35 43 85 0 0 1 141 74 48 74 74 67 17 29 0 49 50 46
 25 24 30 0 53 -19 16 5 0 1 0 9 5 S0 74 4 CI16 index_map_offset0 0 1 dCCZ20 14 4
 0 0 142 163 2 132 0 0 0 0 0 0 0 0 0 0 0 0 0 0 0 0 80 2 12 176 177 8004 0 0 0 0
 3 5 0 0 0 FFTFFFFFFFFFFT2 3 83 1 13 1e3 79 16 177 SDL/TYSA_DENSITY1 0 
